<?xml version="1.0" encoding="UTF-8"?>
<svg width="752pt" height="752pt" version="1.1" viewBox="0 0 752 752" xmlns="http://www.w3.org/2000/svg">
 <path d="m309.5 292.83c-32.016 0-63.293-8.832-86.973-25.996l8.6836-11.988c37 26.836 95.16 30.93 141.43 9.8164 50.859-23.188 115.14-18.5 156.23 11.348l-8.6836 11.988c-37-26.836-95.16-30.93-141.43-9.8164-21.555 9.8633-45.629 14.648-69.258 14.648zm63.145 41.586c-46.273 21.066-104.43 17.02-141.43-9.8164l-8.6836 11.938c23.629 17.168 54.957 25.996 86.973 25.996 23.629 0 47.652-4.8359 69.262-14.652 46.273-21.066 104.39-17.02 141.43 9.8164l8.6836-11.988c-41.098-29.793-105.38-34.477-156.23-11.293zm-0.050782 69.707c-46.273 21.066-104.39 17.02-141.43-9.8164l-8.6836 11.988c23.629 17.168 54.957 25.996 86.973 25.996 23.629 0 47.652-4.8359 69.262-14.652 46.273-21.066 104.39-17.02 141.43 9.8164l8.7305-11.988c-41.141-29.844-105.37-34.531-156.28-11.344zm0 69.703c-46.273 21.066-104.39 17.02-141.43-9.8164l-8.6836 11.988c23.629 17.168 54.957 25.996 86.973 25.996 23.629 0 47.652-4.8359 69.262-14.652 46.273-21.066 104.39-17.02 141.43 9.8164l8.6836-11.988c-41.094-29.84-105.38-34.527-156.23-11.344z"/>
</svg>
