<?xml version="1.0" encoding="UTF-8"?>
<svg width="752pt" height="752pt" version="1.1" viewBox="0 0 752 752" xmlns="http://www.w3.org/2000/svg">
 <defs>
  <clipPath id="d">
   <path d="m139.21 139.21h473.58v249.79h-473.58z"/>
  </clipPath>
  <clipPath id="c">
   <path d="m266 487h81v125.79h-81z"/>
  </clipPath>
  <clipPath id="b">
   <path d="m393 487h81v125.79h-81z"/>
  </clipPath>
  <clipPath id="a">
   <path d="m142 506h71v106.79h-71z"/>
  </clipPath>
 </defs>
 <g clip-path="url(#d)">
  <path d="m232.02 388.39v0.39453h299.18c45.051 0 81.586-36.527 81.586-81.574-0.007812-45.07-36.539-81.605-81.598-81.605-4.6562 0-9.1914 0.48828-13.633 1.2422-15.047-48.238-58.551-83.852-110.87-87.301v0.085938c-2.7461-0.18359-5.4883-0.42578-8.2969-0.42578-3.7891 0-7.5391 0.24609-11.238 0.56641-0.96484 0.089844-1.9336 0.18359-2.8945 0.29297-3.4297 0.39453-6.8164 0.89453-10.16 1.543-0.27344 0.066407-0.5625 0.089844-0.82812 0.14062-3.4531 0.71875-6.8281 1.6133-10.172 2.5938-1.0938 0.32812-2.168 0.67578-3.2539 1.0195-2.6758 0.86719-5.3047 1.832-7.8867 2.875-1.0469 0.41016-2.0898 0.81641-3.1172 1.2578-2.6172 1.1523-5.1914 2.3828-7.7148 3.7031-1.3164 0.68359-2.6172 1.3906-3.9102 2.1211-1.7812 1.0195-3.5391 2.0781-5.2617 3.1758-1.9805 1.2578-3.9336 2.5781-5.8594 3.9453-1.5547 1.1133-3.1016 2.2383-4.6016 3.418-1.4648 1.1406-2.8945 2.3438-4.3008 3.5508-1.0781 0.91406-2.1133 1.8789-3.1523 2.8359-2.5 2.3164-4.9102 4.7305-7.2266 7.2227-0.78125 0.86328-1.5781 1.6875-2.3477 2.5508-1.3555 1.5625-2.668 3.1758-3.9453 4.8008-0.73047 0.92969-1.4297 1.875-2.1367 2.8125-1.0547 1.4297-2 2.9414-2.9961 4.4141-11.312 17.988-17.969 39.207-17.996 62.047l-17.551 0.015625c0-22.477 5.5781-43.613 15.328-62.234-10.953-4.1875-22.727-6.6719-35.152-6.6719-55.668 0-100.79 45.137-100.79 100.8 0 52.961 40.887 96.305 92.797 100.39z" fill="#221f20"/>
 </g>
 <path d="m310.11 413.7s-10.699 15.406-25.09 28.707c-9.5898 8.8711-26.34 20.289-26.34 20.289l9.625 30.777 30.777-9.6094s-0.13281-20.25 1.6992-33.211c2.75-19.391 9.3281-36.953 9.3281-36.953z" fill="#221f20"/>
 <g clip-path="url(#c)">
  <path d="m307.53 532.46c-15.066 13.953-41.41 31.938-41.41 31.938l15.117 48.395 48.41-15.113s-0.20703-31.875 2.668-52.219c4.3555-30.512 14.68-58.121 14.68-58.121-0.003907 0.003906-16.84 24.211-39.465 45.121z" fill="#221f20"/>
 </g>
 <path d="m192.46 413.68c-0.019532 0.007812-10.711 15.414-25.102 28.715-9.5898 8.8711-26.336 20.289-26.336 20.289l9.6133 30.777 30.781-9.6133s-0.125-20.254 1.7109-33.207c2.75-19.395 9.332-36.961 9.332-36.961z" fill="#221f20"/>
 <g clip-path="url(#b)">
  <path d="m434.46 532.45c-15.094 13.941-41.414 31.93-41.414 31.93l15.105 48.406 48.422-15.121s-0.22656-31.871 2.668-52.207c4.332-30.508 14.68-58.133 14.668-58.133 0-0.007813-16.84 24.223-39.449 45.125z" fill="#221f20"/>
 </g>
 <g clip-path="url(#a)">
  <path d="m182.78 535.91c-12.457 11.457-30.234 20.301-37.219 33.535-7.6211 14.43-2.1172 32.254 12.273 39.91 14.426 7.5898 32.273 2.0898 39.898-12.312 7.0039-13.242 4.3086-32.906 6.7344-49.637 3.6641-25.113 7.875-41.145 7.8672-41.145 0.003906 0-10.867 12.488-29.555 29.648z" fill="#221f20"/>
 </g>
 <path d="m418.07 481.66c5.2383-9.9258 3.2188-24.684 5.0547-37.234 2.7383-18.82 5.8906-30.844 5.8906-30.848 0 0.003906-8.1562 9.3672-22.168 22.254-9.3438 8.582-22.676 15.203-27.922 25.137-5.7227 10.816-1.5977 24.211 9.1953 29.941 10.836 5.6953 24.227 1.582 29.949-9.25z" fill="#221f20"/>
 <path d="m523.27 435.84c-9.3516 8.582-22.676 15.203-27.922 25.137-5.7227 10.816-1.5898 24.211 9.1953 29.941 10.824 5.6875 24.219 1.5781 29.941-9.25 5.2383-9.9258 3.207-24.684 5.0352-37.234 2.7461-18.82 5.9102-30.844 5.9102-30.848 0.003906 0.003906-8.1445 9.3633-22.16 22.254z" fill="#221f20"/>
</svg>
