<?xml version="1.0" encoding="UTF-8"?>
<svg width="752pt" height="752pt" version="1.1" viewBox="0 0 752 752" xmlns="http://www.w3.org/2000/svg">
 <path d="m442.78 210.25c-79.09 0-143.97 61.566-149.18 138.76-5.2109-0.94531-10.418-1.8945-15.629-1.8945-31.258-1.4219-60.617 9.4727-83.352 31.258-22.73 21.312-35.047 50.672-35.047 81.457 0 10.418 1.4219 20.836 4.2617 30.781 8.5312 30.309 36.473 51.145 67.727 51.145h100.87v-18.941h-100.87c-23.207 0-43.57-15.156-49.727-36.938-2.3672-8.5234-3.7891-17.051-3.7891-25.574 0-26.047 10.418-50.199 28.887-68.195 18.941-17.996 43.57-26.992 69.617-26.047 35.992 1.8945 65.828 24.625 76.246 56.828-25.102 11.84-42.621 36.465-44.043 65.355l18.941 0.94531c1.4219-30.781 27.469-55.41 58.723-54.461 7.5781 0 15.156 1.8945 22.258 5.2109 22.258 11.84 29.363 35.992 25.102 53.043-4.7344 18.469-20.836 29.363-44.043 29.363h-27.941v18.941h27.941c30.781 0 49.254-14.68 57.777-31.73 80.508-2.3672 144.91-68.668 144.91-149.65 0.007813-82.406-67.242-149.65-149.64-149.65zm10.418 280.36c3.3164-26.52-10.418-53.043-35.992-67.25-9.4727-4.7344-19.891-7.1055-30.309-7.5781h-2.3672c-4.7344 0-9.4727 0.47266-13.734 1.4219-8.9961-28.887-30.781-51.621-58.723-62.512 2.8398-69.617 60.617-125.5 130.71-125.5 71.984 0 130.71 58.723 130.71 130.71 0 69.145-53.039 125.5-120.29 130.71z"/>
</svg>
