<?xml version="1.0" encoding="UTF-8"?>
<svg width="752pt" height="752pt" version="1.1" viewBox="0 0 752 752" xmlns="http://www.w3.org/2000/svg">
 <g>
  <path d="m520.39 414.98h-270.93c-23.145-0.003906-45.188-9.8672-60.617-27.113-15.43-17.25-22.785-40.254-20.223-63.254s14.797-43.82 33.645-57.25c18.844-13.434 42.52-18.203 65.098-13.117 16.426-32.191 45.594-56.023 80.414-65.703 34.82-9.6836 72.102-4.3242 102.79 14.773 30.684 19.094 51.957 50.176 58.652 85.691 17.574-3.2227 35.695 1.1094 49.914 11.93 14.215 10.82 23.219 27.129 24.797 44.926 1.582 17.797-4.4102 35.434-16.5 48.59-12.094 13.152-29.168 20.605-47.035 20.527zm-270.93-148.52c-23.992 0-46.16 12.801-58.156 33.578-11.996 20.777-11.996 46.375 0 67.152 11.996 20.777 34.164 33.578 58.156 33.578h270.93c13.336 0.41406 26.266-4.5938 35.844-13.879s14.984-22.059 14.984-35.398c0-13.34-5.4062-26.109-14.984-35.395s-22.508-14.293-35.844-13.879c-5.0469-0.007812-10.062 0.77344-14.867 2.3203-2.0117 0.62109-4.1953 0.32813-5.9688-0.80469-1.793-1.1328-2.9766-3.0117-3.2188-5.1172-4.1758-33.348-22.738-63.199-50.809-81.684-28.066-18.488-62.824-23.758-95.109-14.422-32.285 9.3359-58.867 32.344-72.734 62.957-1.4844 3.2539-5.1484 4.9141-8.5742 3.8828-6.3711-1.9297-12.996-2.9023-19.652-2.8906z"/>
  <path d="m483.17 491.41c-0.82422-0.003906-1.6406-0.14844-2.4141-0.42578-3.6875-1.3359-5.5938-5.4062-4.2617-9.0938l21.215-57.965c1.4961-3.4102 5.3711-5.0859 8.8789-3.8438 3.5078 1.2461 5.4609 4.9883 4.4766 8.5781l-21.406 58.109c-0.98438 2.7461-3.5703 4.5938-6.4883 4.6406z"/>
  <path d="m455.33 567.61c-0.83984-0.003906-1.6719-0.14844-2.4648-0.42578-1.7695-0.64062-3.2109-1.9609-4-3.668-0.79297-1.7109-0.87109-3.6602-0.21484-5.4258l21.215-57.965c0.46875-1.9648 1.75-3.6328 3.5234-4.5977 1.7734-0.96094 3.8711-1.125 5.7695-0.44922 1.9023 0.67578 3.4219 2.1289 4.1914 3.9961 0.76562 1.8633 0.70312 3.9688-0.17578 5.7852l-21.168 58.109c-1.0547 2.7734-3.707 4.6172-6.6758 4.6406z"/>
  <path d="m420.85 491.41c-0.82031-0.003906-1.6367-0.14844-2.4141-0.42578-3.6875-1.3359-5.5938-5.4062-4.2617-9.0938l21.215-57.965c1.4961-3.4102 5.3711-5.0859 8.8789-3.8438 3.5117 1.2461 5.4648 4.9883 4.4766 8.5781l-21.215 58.109c-1.0195 2.8008-3.6953 4.6602-6.6797 4.6406z"/>
  <path d="m348.86 517.32c-0.83594 0-1.668-0.14453-2.4609-0.42578-3.6758-1.375-5.5547-5.4531-4.2148-9.1406l30.879-83.824v0.003907c0.64844-1.7734 1.9766-3.2148 3.6953-4.0078 1.7148-0.78906 3.6719-0.86719 5.4453-0.20703 3.6523 1.3945 5.5273 5.4531 4.2148 9.1367l-30.879 83.824c-1.0547 2.7773-3.707 4.6211-6.6797 4.6406z"/>
  <path d="m330.68 567.61c-0.82422-0.003906-1.6406-0.14844-2.4141-0.42578-1.7891-0.625-3.2539-1.9336-4.0742-3.6406-0.81641-1.707-0.91797-3.6719-0.28516-5.4531l11.555-32.062c1.5-3.4102 5.3711-5.0859 8.8828-3.8398 3.5078 1.2461 5.4609 4.9844 4.4727 8.5781l-11.508 32.062v-0.003906c-0.97656 2.8359-3.6328 4.75-6.6289 4.7852z"/>
  <path d="m301.46 477.49c-0.82813 0.003907-1.6523-0.15625-2.418-0.47266-3.6836-1.3359-5.5938-5.4062-4.2617-9.0938l15.961-43.949v0.003906c0.52344-1.9062 1.8125-3.5039 3.5625-4.418 1.75-0.91406 3.8008-1.0586 5.6602-0.39844 1.8633 0.66016 3.3633 2.0625 4.1484 3.875 0.78125 1.8125 0.77734 3.8672-0.015625 5.6758l-15.961 43.996c-0.98438 2.8516-3.6602 4.7656-6.6758 4.7812z"/>
  <path d="m279.15 539.48c-0.80859 0-1.6094-0.14453-2.3672-0.42578-1.7734-0.62109-3.2305-1.9258-4.0391-3.625-0.80859-1.6992-0.90625-3.6484-0.26953-5.418l15.629-43.805v-0.003906c0.52344-1.9023 1.8125-3.5039 3.5625-4.418 1.75-0.91016 3.8008-1.0547 5.6602-0.39453s3.3633 2.0625 4.1484 3.875c0.78125 1.8125 0.77734 3.8672-0.015624 5.6758l-15.441 43.852c-1.0273 2.8906-3.8008 4.7852-6.8672 4.6875z"/>
  <path d="m233.93 491.41c-0.83594-0.003906-1.6719-0.14844-2.4609-0.42578-3.668-1.3555-5.5508-5.418-4.2148-9.0938l21.215-57.965c0.46875-1.9648 1.75-3.6328 3.5234-4.5977 1.7695-0.96094 3.8672-1.125 5.7695-0.44922 1.8984 0.67578 3.4219 2.1289 4.1875 3.9961 0.76953 1.8633 0.70313 3.9688-0.17187 5.7852l-21.215 58.109c-1.0156 2.7852-3.6641 4.6406-6.6328 4.6406z"/>
 </g>
</svg>
