<?xml version="1.0" encoding="UTF-8"?>
<svg width="752pt" height="752pt" version="1.1" viewBox="0 0 752 752" xmlns="http://www.w3.org/2000/svg">
 <g>
  <path d="m484.64 366.52h-210.01c-26.047 0-47.238-21.191-47.238-47.238 0-26.352 21.645-47.68 48.168-47.227-0.082031-1.5977-0.11719-3.1914-0.11719-4.7891 0-52.156 42.43-94.582 94.582-94.582 48.633 0 88.805 36.891 94.016 84.16 6.5195-2.543 13.492-3.8555 20.613-3.8555 31.301 0 56.762 25.465 56.762 56.762 0 31.301-25.469 56.77-56.773 56.77zm-210.01-80.262c-18.215 0-33.031 14.812-33.031 33.027s14.816 33.031 33.031 33.031h210.02c23.465 0 42.555-19.09 42.555-42.555 0-23.465-19.09-42.555-42.555-42.555-8.5273 0-16.754 2.5117-23.793 7.2617-3.2422 2.1914-7.6641 1.3398-9.8594-1.9141-1.4219-2.0977-1.5625-4.6836-0.60938-6.8438-0.84375-43.594-36.57-78.805-80.363-78.805-44.316 0-80.375 36.055-80.375 80.375 0 3.8516 0.28125 7.7383 0.82031 11.535l0.94141 6.582-8.6719 1.8359-1.457-0.30859c-2.1602-0.44141-4.3984-0.66797-6.6523-0.66797z"/>
  <path d="m479.76 434.39c-8.957 0-16.238-7.2852-16.238-16.238 0-8.957 7.2852-16.238 16.238-16.238 8.957 0 16.238 7.2852 16.238 16.238s-7.2812 16.238-16.238 16.238zm0-18.266c-1.1172 0-2.0312 0.91016-2.0312 2.0312s0.91016 2.0312 2.0312 2.0312c1.1211 0 2.0312-0.91016 2.0312-2.0312 0-1.125-0.91016-2.0312-2.0312-2.0312z"/>
  <path d="m423.96 495.37c-7.6406 0-13.855-6.2188-13.855-13.855 0-7.6406 6.2188-13.855 13.855-13.855 7.6328 0 13.852 6.2188 13.852 13.855s-6.2188 13.855-13.852 13.855z"/>
  <path d="m395.75 579.31c-7.6406 0-13.855-6.2188-13.855-13.855 0-7.6328 6.2188-13.852 13.855-13.852 7.6328 0 13.852 6.2188 13.852 13.852 0 7.6406-6.2188 13.855-13.852 13.855z"/>
  <path d="m331.44 471.37c-5.625 0-10.211-4.5859-10.211-10.211s4.5859-10.211 10.211-10.211 10.211 4.5859 10.211 10.211-4.5859 10.211-10.211 10.211zm0-10.953c-0.40625 0-0.73828 0.33203-0.73828 0.73828 0 0.81641 1.4805 0.81641 1.4805 0-0.003907-0.40234-0.33594-0.73828-0.74219-0.73828z"/>
  <path d="m288.32 548.5c-8.5703 0-15.539-6.9727-15.539-15.539 0-8.5664 6.9727-15.543 15.539-15.543s15.543 6.9766 15.543 15.543c0 8.5664-6.9688 15.539-15.543 15.539zm0-16.879c-0.73438 0-1.332 0.60156-1.332 1.3359s0.59766 1.332 1.332 1.332 1.3359-0.59766 1.3359-1.332-0.59375-1.3359-1.3359-1.3359z"/>
  <path d="m262.82 403.13c-3.7656 0-6.8281-3.0625-6.8281-6.8281 0-3.7656 3.0625-6.8242 6.8281-6.8242s6.8242 3.0586 6.8242 6.8242c0 3.7656-3.0586 6.8281-6.8242 6.8281zm0-8.9219c-1.1562 0-2.0938 0.9375-2.0938 2.0898 0 1.1562 0.9375 2.0938 2.0938 2.0938 1.1523 0 2.0898-0.9375 2.0898-2.0938-0.003906-1.1523-0.94141-2.0898-2.0898-2.0898z"/>
  <path d="m374.96 406.62c-7.6406 0-13.855-6.2188-13.855-13.855 0-7.6328 6.2188-13.852 13.855-13.852 7.6328 0 13.852 6.2188 13.852 13.852 0 7.6367-6.2148 13.855-13.852 13.855z"/>
 </g>
</svg>
