<?xml version="1.0" encoding="UTF-8"?>
<svg width="752pt" height="752pt" version="1.1" viewBox="0 0 752 752" xmlns="http://www.w3.org/2000/svg">
 <g>
  <path d="m460.77 293.12c-1.8945 0-3.7891-0.94531-4.2617-2.8398-0.94531-1.8945-0.47266-3.7891 0.47266-5.2109l82.402-122.18h-125.97l-30.309 59.672-56.355 110.82h61.094c1.4219 0 2.8398 0.94531 3.7891 1.8945 0.94531 1.4219 1.4219 2.8398 0.94531 4.2617l-62.516 249.58 177.12-260.94 4.7344-6.6289 19.418-28.414z"/>
  <path d="m589.11 425.73c0-44.988-29.836-84.77-71.039-95.191l-131.65 193.22h108.92c51.621 0 93.77-44.043 93.77-98.031z"/>
  <path d="m313.96 340.96c-0.94531-1.4219-0.94531-3.3164 0-5.2109l56.355-110.34c-51.145 2.8438-95.188 44.043-102.77 97.559-0.47266 2.3672-2.3672 4.2617-4.7344 4.2617h-6.1562c-51.621 0-93.77 44.043-93.77 98.504 0 53.988 42.148 98.031 93.77 98.031h79.562l44.988-179.96h-62.988c-1.418 0-3.3125-0.94531-4.2617-2.8398z"/>
 </g>
</svg>
